ModelForces
version=1
nRows=4
nColumns=157
inDegrees=no

This file contains the forces exerted on a model during a simulation.

A force is a generalized force, meaning that it can be either a force (N) or a torque (Nm).

Units are S.I. units (second, meters, Newtons, ...)
Angles are in degrees.

endheader
time	glut_med1_r	glut_med2_r	glut_med3_r	glut_min1_r	glut_min2_r	glut_min3_r	semimem_r	semiten_r	bifemlh_r	bifemsh_r	sar_r	add_long_r	add_brev_r	add_mag1_r	add_mag2_r	add_mag3_r	tfl_r	pect_r	grac_r	glut_max1_r	glut_max2_r	glut_max3_r	iliacus_r	psoas_r	quad_fem_r	gem_r	peri_r	rect_fem_r	vas_med_r	vas_int_r	vas_lat_r	med_gas_r	lat_gas_r	soleus_r	tib_post_r	flex_dig_r	flex_hal_r	tib_ant_r	per_brev_r	per_long_r	per_tert_r	ext_dig_r	ext_hal_r	glut_med1_l	glut_med2_l	glut_med3_l	glut_min1_l	glut_min2_l	glut_min3_l	semimem_l	semiten_l	bifemlh_l	bifemsh_l	sar_l	add_long_l	add_brev_l	add_mag1_l	add_mag2_l	add_mag3_l	tfl_l	pect_l	grac_l	glut_max1_l	glut_max2_l	glut_max3_l	iliacus_l	psoas_l	quad_fem_l	gem_l	peri_l	rect_fem_l	vas_med_l	vas_int_l	vas_lat_l	med_gas_l	lat_gas_l	soleus_l	tib_post_l	flex_dig_l	flex_hal_l	tib_ant_l	per_brev_l	per_long_l	per_tert_l	ext_dig_l	ext_hal_l	ercspn_r	ercspn_l	intobl_r	intobl_l	extobl_r	extobl_l	femur_lat_meniscii_r.femur_lat_r.force.X	femur_lat_meniscii_r.femur_lat_r.force.Y	femur_lat_meniscii_r.femur_lat_r.force.Z	femur_lat_meniscii_r.femur_lat_r.torque.X	femur_lat_meniscii_r.femur_lat_r.torque.Y	femur_lat_meniscii_r.femur_lat_r.torque.Z	femur_lat_meniscii_r.meniscus_lat_r.force.X	femur_lat_meniscii_r.meniscus_lat_r.force.Y	femur_lat_meniscii_r.meniscus_lat_r.force.Z	femur_lat_meniscii_r.meniscus_lat_r.torque.X	femur_lat_meniscii_r.meniscus_lat_r.torque.Y	femur_lat_meniscii_r.meniscus_lat_r.torque.Z	femur_med_meniscii_r.femur_med_r.force.X	femur_med_meniscii_r.femur_med_r.force.Y	femur_med_meniscii_r.femur_med_r.force.Z	femur_med_meniscii_r.femur_med_r.torque.X	femur_med_meniscii_r.femur_med_r.torque.Y	femur_med_meniscii_r.femur_med_r.torque.Z	femur_med_meniscii_r.meniscus_med_r.force.X	femur_med_meniscii_r.meniscus_med_r.force.Y	femur_med_meniscii_r.meniscus_med_r.force.Z	femur_med_meniscii_r.meniscus_med_r.torque.X	femur_med_meniscii_r.meniscus_med_r.torque.Y	femur_med_meniscii_r.meniscus_med_r.torque.Z	femur_med_tibia_r.tibia_upper_r.force.X	femur_med_tibia_r.tibia_upper_r.force.Y	femur_med_tibia_r.tibia_upper_r.force.Z	femur_med_tibia_r.tibia_upper_r.torque.X	femur_med_tibia_r.tibia_upper_r.torque.Y	femur_med_tibia_r.tibia_upper_r.torque.Z	femur_med_tibia_r.femur_med_r.force.X	femur_med_tibia_r.femur_med_r.force.Y	femur_med_tibia_r.femur_med_r.force.Z	femur_med_tibia_r.femur_med_r.torque.X	femur_med_tibia_r.femur_med_r.torque.Y	femur_med_tibia_r.femur_med_r.torque.Z	femur_lat_tibia_r.tibia_upper_r.force.X	femur_lat_tibia_r.tibia_upper_r.force.Y	femur_lat_tibia_r.tibia_upper_r.force.Z	femur_lat_tibia_r.tibia_upper_r.torque.X	femur_lat_tibia_r.tibia_upper_r.torque.Y	femur_lat_tibia_r.tibia_upper_r.torque.Z	femur_lat_tibia_r.femur_lat_r.force.X	femur_lat_tibia_r.femur_lat_r.force.Y	femur_lat_tibia_r.femur_lat_r.force.Z	femur_lat_tibia_r.femur_lat_r.torque.X	femur_lat_tibia_r.femur_lat_r.torque.Y	femur_lat_tibia_r.femur_lat_r.torque.Z	aACL_R	pACL_R	aPCL_R	pPCL_R	aMCL_R	mMCL_R	pMCL_R	aLCL_R	mLCL_R	pLCL_R	ground_prescribedForce_fx	ground_prescribedForce_fy	ground_prescribedForce_fz	ground_prescribedForce_px	ground_prescribedForce_py	ground_prescribedForce_pz
      0.00000000	     37.48087652	     28.28714471	     30.25598133	     13.28977762	     14.47626353	     15.91713841	     19.75574241	     19.39969815	     28.08758435	     32.86391948	      7.51392339	     27.93927808	     20.68957741	     14.51222487	     12.16230296	     19.66717628	     12.36347797	     11.16605282	      7.50437259	     18.12681708	     27.55933735	     20.56469162	     63.94906620	     55.74758807	     18.09791099	      9.16719286	     20.03897647	     57.77792964	     47.65608314	     50.07958393	     66.35999724	     42.77225239	     23.07018372	    152.72720615	     92.44658902	     14.93332009	     15.26895791	     41.82851940	     21.62523106	     46.40594865	      8.86060096	     25.04818486	      7.96045570	     37.48087652	     28.28714471	     30.25598133	     13.28977762	     14.47626353	     15.91713841	     42.06683902	     20.39635155	     37.67631238	     36.01822118	      7.59254209	     27.93927808	     20.68957741	     14.51222487	     12.16230296	     19.66717628	     12.58139899	     11.16605282	      7.78214370	     18.12681708	     27.55933735	     20.56469162	     63.94906620	     55.74758807	     18.09791099	      9.16719286	     20.03897647	     52.59637061	     32.48786114	     37.22481259	     39.87514307	     67.71424671	     31.64857027	    152.72720615	     92.44658902	     14.93332009	     15.26895791	     41.82851940	     21.62523106	     46.40594865	      8.86060096	     25.04818486	      7.96045570	    124.99446086	    124.99446086	     44.97041513	     44.97041513	     60.98287244	     60.98287244	    677.33765181	    706.29830870	     70.27089225	    -46.60837871	     17.17138342	    278.77817107	   -677.33765181	   -706.29830870	    -70.27089225	     22.88096826	    -20.81216079	    -13.47709432	      0.12597770	      6.37484665	     -0.57683987	      0.35237837	      0.00506767	      0.13364608	     -0.12597770	     -6.37484665	      0.57683987	     -0.10347830	     -0.00046476	     -0.02841979	     -1.97934753	     -3.40205823	      1.71009326	     -0.09777687	      0.03462426	     -0.04519787	      1.97934753	      3.40205823	     -1.71009326	      0.76675643	     -0.02811910	      0.83244965	      0.00000000	      0.00000000	      0.00000000	      0.00000000	      0.00000000	      0.00000000	      0.00000000	      0.00000000	      0.00000000	      0.00000000	      0.00000000	      0.00000000	     22.88079014	      7.60641182	    174.08315868	    146.18621272	      0.00000000	      0.00000000	      0.00000000	      0.00000000	      0.00000000	      0.00000000	     95.26279000	    -55.00000000	      0.00000000	      0.03000000	     -0.03000000	      0.00000000
      0.00031525	     37.47985994	     28.28543384	     30.25445905	     13.28764098	     14.47509421	     15.91668550	     19.76898810	     19.41117979	     28.11067654	     32.98111584	      7.52574512	     27.93789556	     20.68451001	     14.51135707	     12.16178663	     19.66675432	     12.37314039	     11.16472532	      7.51436115	     18.12590822	     27.55797784	     20.56384018	     63.94672618	     55.74624948	     18.09635797	      9.16698399	     20.03879440	     57.81006697	     47.68551356	     50.12372993	     66.39810798	     42.78704344	     23.08245001	    152.59540426	     92.45975493	     14.94091650	     15.27471261	     41.88133013	     21.60149352	     46.38015186	      8.86315657	     25.04802897	      7.96221209	     37.47985994	     28.28543384	     30.25445905	     13.28764098	     14.47509421	     15.91668550	     42.06638814	     20.39573814	     37.67580848	     36.01522584	      7.59107655	     27.93789556	     20.68451001	     14.51135707	     12.16178663	     19.66675432	     12.58129355	     11.16472532	      7.78131866	     18.12590822	     27.55797784	     20.56384018	     63.94672618	     55.74624948	     18.09635797	      9.16698399	     20.03879440	     52.59560705	     32.48674309	     37.22370570	     39.87401716	     67.71380372	     31.64835953	    152.72582708	     92.44624194	     14.93339042	     15.26900539	     41.82779980	     21.62497339	     46.40569184	      8.86032681	     25.04769550	      7.96025927	    124.97587123	    124.97587123	     44.96870726	     44.96870726	     60.98102300	     60.98102300	    511.94415338	    571.28788516	     77.94143468	    -46.49154389	     13.09740607	    210.39278439	   -511.94415338	   -571.28788516	    -77.94143468	     19.23027053	    -16.07070788	     -9.53863186	      0.14533279	      5.66655326	     -0.52789247	      0.31970395	      0.00417571	      0.13301533	     -0.14533279	     -5.66655326	      0.52789247	     -0.09267408	     -0.00009772	     -0.02673799	     -1.69860673	     -2.92951629	      1.47469813	     -0.08422724	      0.02976142	     -0.03867913	      1.69860673	      2.92951629	     -1.47469813	      0.66110077	     -0.02411554	      0.71435705	      0.00000000	      0.00000000	      0.00000000	      0.00000000	      0.00000000	      0.00000000	      0.00000000	      0.00000000	      0.00000000	      0.00000000	      0.00000000	      0.00000000	     23.94522851	      8.72198681	    178.30762179	    156.51079857	      0.00000000	      0.00000000	      0.00000000	      0.00000000	      0.00000000	      0.00000000	     95.26279000	    -55.00000000	      0.00000000	      0.03000000	     -0.03000000	      0.00000000
      0.00073346	     37.47538617	     28.27798172	     30.24780751	     13.27862055	     14.47003557	     15.91469308	     19.79147498	     19.42969692	     28.16178774	     33.24184959	      7.54061412	     27.93185339	     20.66367569	     14.50757660	     12.15952520	     19.66489417	     12.39686505	     11.15904769	      7.52912567	     18.12193702	     27.55203608	     20.56010976	     63.93648423	     55.74035401	     18.08964651	      9.16606450	     20.03798867	     57.87073432	     47.70455681	     50.18693379	     66.44407636	     42.72392867	     23.06732693	    151.85864358	     92.48869866	     14.97226895	     15.29675712	     42.15115722	     21.50191828	     46.26796893	      8.89054028	     25.06142486	      7.97420412	     37.47538617	     28.27798172	     30.24780751	     13.27862055	     14.47003557	     15.91469308	     42.06439396	     20.39304093	     37.67358161	     36.00227067	      7.58495171	     27.93185339	     20.66367569	     14.50757660	     12.15952520	     19.66489417	     12.58082695	     11.15904769	      7.77777553	     18.12193702	     27.55203608	     20.56010976	     63.93648423	     55.74035401	     18.08964651	      9.16606450	     20.03798867	     52.59223370	     32.48183420	     37.21883872	     39.86906440	     67.71184184	     31.64742623	    152.71972425	     92.44470403	     14.93369899	     15.26921271	     41.82462323	     21.62383402	     46.40455404	      8.85912198	     25.04553687	      7.95939355	    124.89709291	    124.89709291	     44.96121604	     44.96121604	     60.97292296	     60.97292296	    466.06727354	    536.97725261	     81.10898011	    -46.97116804	     11.97647250	    191.39910190	   -466.06727354	   -536.97725261	    -81.10898011	     18.34443683	    -14.77237180	     -8.39449656	      0.13028975	      5.59027161	     -0.51849476	      0.31438880	      0.00430061	      0.12561991	     -0.13028975	     -5.59027161	      0.51849476	     -0.09130747	     -0.00024180	     -0.02580192	     -1.48471625	     -2.54639459	      1.29257267	     -0.07347548	      0.02598373	     -0.03386460	      1.48471625	      2.54639459	     -1.29257267	      0.57900498	     -0.02101810	      0.62432450	      0.00000000	      0.00000000	      0.00000000	      0.00000000	      0.00000000	      0.00000000	      0.00000000	      0.00000000	      0.00000000	      0.00000000	      0.00000000	      0.00000000	     23.70690135	      8.54651818	    180.13686257	    159.56766787	      0.00000000	      0.00000000	      0.00000000	      0.00000000	      0.00000000	      0.00000000	     95.26279000	    -55.00000000	      0.00000000	      0.03000000	     -0.03000000	      0.00000000
      0.00129165	     37.46390409	     28.25913940	     30.23091268	     13.25680290	     14.45737004	     15.90958236	     19.79890946	     19.43236375	     28.21999221	     33.54226932	      7.52991504	     27.91650127	     20.61508992	     14.49801561	     12.15376137	     19.66010798	     12.43042872	     11.14506096	      7.52685060	     18.11185039	     27.53693873	     20.55059730	     63.91040572	     55.72520602	     18.07286808	      9.16370336	     20.03590386	     57.91203206	     47.60651467	     50.17003104	     66.39919157	     42.37701303	     22.92820819	    149.75797140	     92.51934207	     15.04959519	     15.34842098	     42.89880122	     21.25642496	     45.98406455	      8.98404113	     25.11618750	      8.01100106	     37.46390409	     28.25913940	     30.23091268	     13.25680290	     14.45737004	     15.90958236	     42.05923827	     20.38612728	     37.66783095	     35.96984451	      7.57034493	     27.91650127	     20.61508992	     14.49801561	     12.15376137	     19.66010798	     12.57961985	     11.14506096	      7.76899692	     18.11185039	     27.53693873	     20.55059730	     63.91040572	     55.72520602	     18.07286808	      9.16370336	     20.03590386	     52.58352658	     32.46927792	     37.20636332	     39.85636096	     67.70675966	     31.64500863	    152.70393268	     92.44071735	     14.93448671	     15.26973790	     41.81643390	     21.62088949	     46.40160504	      8.85603598	     25.03997908	      7.95716761	    124.70554342	    124.70554342	     44.94208223	     44.94208223	     60.95227849	     60.95227849	    457.91652406	    533.49690654	     82.13142041	    -47.32042290	     11.78291145	    188.00197539	   -457.91652406	   -533.49690654	    -82.13142041	     18.28445748	    -14.54886966	     -8.14780463	      0.12698204	      5.77674060	     -0.53618137	      0.32502059	      0.00457138	      0.12651992	     -0.12698204	     -5.77674060	      0.53618137	     -0.09437652	     -0.00034275	     -0.02633861	     -1.26847194	     -2.17827767	      1.12344547	     -0.06331830	      0.02231906	     -0.02878106	      1.26847194	      2.17827767	     -1.12344547	      0.50253750	     -0.01790693	      0.53325421	      0.00000000	      0.00000000	      0.00000000	      0.00000000	      0.00000000	      0.00000000	      0.00000000	      0.00000000	      0.00000000	      0.00000000	      0.00000000	      0.00000000	     23.06864202	      8.01070867	    181.37318236	    160.33617988	      0.00000000	      0.00000000	      0.00000000	      0.00000000	      0.00000000	      0.00000000	     95.26279000	    -55.00000000	      0.00000000	      0.03000000	     -0.03000000	      0.00000000
